ffmpeg started on 2016-12-07 at 16:55:14
Report written to "Output/x264/results/ffmpeg/sintelslow14000k.log"
Command line:
Tools/ffmpeg/ffmpeg -benchmark -y -i Input/y4m/sintel.y4m -c:v libx264 -preset slow -b:v 14000k -an Output/x264/encoded/sintelslow14000k.mkv
ffmpeg version N-82227-gdb23fde Copyright (c) 2000-2016 the FFmpeg developers
  built with gcc 5.4.0 (Ubuntu 5.4.0-6ubuntu1~16.04.2) 20160609
  configuration: --prefix=/home/jaroslav/ffmpeg_build --pkg-config-flags=--static --extra-cflags=-I/home/jaroslav/ffmpeg_build/include --extra-ldflags=-L/home/jaroslav/ffmpeg_build/lib --bindir=/home/jaroslav/bin --enable-gpl --enable-libass --enable-libfdk-aac --enable-libfreetype --enable-libmp3lame --enable-libopus --enable-libtheora --enable-libvorbis --enable-libvpx --enable-libx264 --enable-libx265 --enable-nvenc --enable-libmfx --enable-libxvid --enable-libgsm --enable-libopencore-amrnb --enable-version3 --enable-nonfree
  libavutil      55. 35.100 / 55. 35.100
  libavcodec     57. 66.101 / 57. 66.101
  libavformat    57. 57.100 / 57. 57.100
  libavdevice    57.  2.100 / 57.  2.100
  libavfilter     6. 66.100 /  6. 66.100
  libswscale      4.  3.100 /  4.  3.100
  libswresample   2.  4.100 /  2.  4.100
  libpostproc    54.  2.100 / 54.  2.100
Input #0, yuv4mpegpipe, from 'Input/y4m/sintel.y4m':
  Duration: 00:00:20.83, start: 0.000000, bitrate: 2057307 kb/s
    Stream #0:0: Video: rawvideo (I420 / 0x30323449), yuv420p(progressive), 4096x1744, SAR 1:1 DAR 256:109, 24 fps, 24 tbr, 24 tbn, 24 tbc
[libx264 @ 0x28d81c0] using SAR=1/1
[libx264 @ 0x28d81c0] using cpu capabilities: MMX2 SSE2Fast SSSE3 SSE4.2 AVX FMA3 AVX2 LZCNT BMI2
[libx264 @ 0x28d81c0] profile High, level 5.1
[libx264 @ 0x28d81c0] 264 - core 148 - H.264/MPEG-4 AVC codec - Copyleft 2003-2016 - http://www.videolan.org/x264.html - options: cabac=1 ref=5 deblock=1:0:0 analyse=0x3:0x113 me=hex subme=8 psy=1 psy_rd=1.00:0.00 mixed_ref=1 me_range=16 chroma_me=1 trellis=2 8x8dct=1 cqm=0 deadzone=21,11 fast_pskip=1 chroma_qp_offset=-2 threads=6 lookahead_threads=1 sliced_threads=0 nr=0 decimate=1 interlaced=0 bluray_compat=0 constrained_intra=0 bframes=3 b_pyramid=2 b_adapt=1 b_bias=0 direct=3 weightb=1 open_gop=0 weightp=2 keyint=250 keyint_min=24 scenecut=40 intra_refresh=0 rc_lookahead=50 rc=abr mbtree=1 bitrate=14000 ratetol=1.0 qcomp=0.60 qpmin=0 qpmax=69 qpstep=4 ip_ratio=1.40 aq=1:1.00
Output #0, matroska, to 'Output/x264/encoded/sintelslow14000k.mkv':
  Metadata:
    encoder         : Lavf57.57.100
    Stream #0:0: Video: h264 (libx264) (H264 / 0x34363248), yuv420p, 4096x1744 [SAR 1:1 DAR 256:109], q=-1--1, 14000 kb/s, 24 fps, 1k tbn, 24 tbc
    Metadata:
      encoder         : Lavc57.66.101 libx264
    Side data:
      cpb: bitrate max/min/avg: 0/0/14000000 buffer size: 0 vbv_delay: -1
Stream mapping:
  Stream #0:0 -> #0:0 (rawvideo (native) -> h264 (libx264))
Press [q] to stop, [?] for help
frame=   12 fps=0.0 q=0.0 size=       0kB time=00:00:00.00 bitrate=N/A speed=   0x    frame=   21 fps= 19 q=0.0 size=       0kB time=00:00:00.00 bitrate=N/A speed=   0x    frame=   30 fps= 19 q=0.0 size=       0kB time=00:00:00.00 bitrate=N/A speed=   0x    frame=   39 fps= 18 q=0.0 size=       0kB time=00:00:00.00 bitrate=N/A speed=   0x    frame=   48 fps= 18 q=0.0 size=       0kB time=00:00:00.00 bitrate=N/A speed=   0x    frame=   57 fps=9.6 q=0.0 size=       0kB time=00:00:00.00 bitrate=N/A speed=   0x    frame=   58 fps=6.1 q=0.0 size=       0kB time=00:00:00.00 bitrate=N/A speed=   0x    frame=   59 fps=5.4 q=0.0 size=       0kB time=00:00:00.00 bitrate=N/A speed=   0x    frame=   64 fps=5.1 q=31.0 size=       1kB time=00:00:00.04 bitrate= 136.6kbits/s speed=0.00346x    frame=   67 fps=5.1 q=39.0 size=       1kB time=00:00:00.16 bitrate=  35.0kbits/s speed=0.0128x    frame=   69 fps=5.1 q=40.0 size=       1kB time=00:00:00.25 bitrate=  23.4kbits/s speed=0.0184x    frame=   70 fps=4.9 q=40.0 size=       1kB time=00:00:00.29 bitrate=  20.0kbits/s speed=0.0207x    frame=   75 fps=5.1 q=39.0 size=       1kB time=00:00:00.50 bitrate=  11.7kbits/s speed=0.0341x    frame=   76 fps=4.9 q=39.0 size=       1kB time=00:00:00.54 bitrate=  10.8kbits/s speed=0.0349x    frame=   82 fps=5.0 q=38.0 size=       1kB time=00:00:00.79 bitrate=   7.4kbits/s speed=0.0481x    frame=   85 fps=4.9 q=38.0 size=       1kB time=00:00:00.91 bitrate=   6.4kbits/s speed=0.0531x    frame=   91 fps=4.9 q=37.0 size=       1kB time=00:00:01.16 bitrate=   5.0kbits/s speed=0.0634x    frame=   94 fps=5.0 q=37.0 size=       1kB time=00:00:01.29 bitrate=   4.5kbits/s speed=0.0683x    frame=   97 fps=4.9 q=37.0 size=       1kB time=00:00:01.41 bitrate=   4.1kbits/s speed=0.0723x    frame=  100 fps=4.9 q=36.0 size=       1kB time=00:00:01.54 bitrate=   3.8kbits/s speed=0.076x    frame=  103 fps=4.9 q=36.0 size=       1kB time=00:00:01.66 bitrate=   3.5kbits/s speed=0.0799x    frame=  106 fps=4.9 q=36.0 size=       1kB time=00:00:01.79 bitrate=   3.3kbits/s speed=0.0834x    frame=  109 fps=5.0 q=35.0 size=       1kB time=00:00:01.91 bitrate=   3.1kbits/s speed=0.0871x    frame=  111 fps=4.9 q=35.0 size=       1kB time=00:00:02.00 bitrate=   2.9kbits/s speed=0.0887x    frame=  113 fps=4.9 q=35.0 size=    5127kB time=00:00:02.08 bitrate=20153.0kbits/s speed=0.0903x    frame=  115 fps=4.8 q=35.0 size=    5127kB time=00:00:02.16 bitrate=19372.2kbits/s speed=0.0914x    frame=  117 fps=4.8 q=35.0 size=    5127kB time=00:00:02.25 bitrate=18657.9kbits/s speed=0.0921x    frame=  121 fps=4.8 q=35.0 size=    5127kB time=00:00:02.41 bitrate=17369.3kbits/s speed=0.0958x    frame=  123 fps=4.8 q=35.0 size=    5127kB time=00:00:02.50 bitrate=16792.9kbits/s speed=0.0972x    frame=  125 fps=4.7 q=35.0 size=    5127kB time=00:00:02.58 bitrate=16253.5kbits/s speed=0.0975x    frame=  127 fps=4.7 q=35.0 size=    5127kB time=00:00:02.66 bitrate=15741.7kbits/s speed=0.0984x    frame=  131 fps=4.7 q=34.0 size=    5127kB time=00:00:02.83 bitrate=14819.7kbits/s speed=0.103x    frame=  133 fps=4.7 q=34.0 size=    5127kB time=00:00:02.91 bitrate=14393.1kbits/s speed=0.103x    frame=  136 fps=4.7 q=34.0 size=    5127kB time=00:00:03.04 bitrate=13801.8kbits/s speed=0.105x    frame=  138 fps=4.7 q=34.0 size=    5127kB time=00:00:03.12 bitrate=13435.4kbits/s speed=0.105x    frame=  142 fps=4.7 q=34.0 size=    5127kB time=00:00:03.29 bitrate=12754.0kbits/s speed=0.108x    frame=  144 fps=4.6 q=34.0 size=    5127kB time=00:00:03.37 bitrate=12440.4kbits/s speed=0.109x    frame=  147 fps=4.6 q=34.0 size=    5127kB time=00:00:03.50 bitrate=11996.3kbits/s speed=0.11x    frame=  151 fps=4.6 q=33.0 size=    5127kB time=00:00:03.66 bitrate=11450.1kbits/s speed=0.113x    frame=  153 fps=4.6 q=33.0 size=    5127kB time=00:00:03.75 bitrate=11196.7kbits/s speed=0.112x    frame=  156 fps=4.6 q=33.0 size=    5127kB time=00:00:03.87 bitrate=10835.6kbits/s speed=0.114x    frame=  161 fps=4.7 q=33.0 size=    7359kB time=00:00:04.08 bitrate=14761.2kbits/s speed=0.118x    frame=  163 fps=4.6 q=33.0 size=    7359kB time=00:00:04.16 bitrate=14463.7kbits/s speed=0.118x    frame=  168 fps=4.7 q=33.0 size=    7359kB time=00:00:04.37 bitrate=13776.2kbits/s speed=0.121x    frame=  171 fps=4.7 q=31.0 size=    7359kB time=00:00:04.50 bitrate=13393.6kbits/s speed=0.123x    frame=  174 fps=4.7 q=32.0 size=    7359kB time=00:00:04.62 bitrate=13031.7kbits/s speed=0.124x    frame=  178 fps=4.7 q=32.0 size=    7359kB time=00:00:04.79 bitrate=12577.7kbits/s speed=0.126x    frame=  181 fps=4.6 q=32.0 size=    7359kB time=00:00:04.91 bitrate=12258.0kbits/s speed=0.126x    frame=  185 fps=4.7 q=32.0 size=    7359kB time=00:00:05.08 bitrate=11857.7kbits/s speed=0.128x    frame=  187 fps=4.6 q=32.0 size=    7359kB time=00:00:05.16 bitrate=11665.0kbits/s speed=0.128x    frame=  190 fps=4.6 q=32.0 size=    7359kB time=00:00:05.29 bitrate=11389.5kbits/s speed=0.129x    frame=  192 fps=4.6 q=32.0 size=    7359kB time=00:00:05.37 bitrate=11213.7kbits/s speed=0.129x    frame=  194 fps=4.6 q=32.0 size=    7359kB time=00:00:05.45 bitrate=11043.2kbits/s speed=0.129x    frame=  197 fps=4.6 q=32.0 size=    7359kB time=00:00:05.58 bitrate=10796.0kbits/s speed=0.131x    frame=  200 fps=4.6 q=32.0 size=    7359kB time=00:00:05.70 bitrate=10559.6kbits/s speed=0.132x    frame=  203 fps=4.6 q=32.0 size=    7359kB time=00:00:05.83 bitrate=10333.3kbits/s speed=0.133x    frame=  205 fps=4.6 q=32.0 size=    7359kB time=00:00:05.91 bitrate=10186.7kbits/s speed=0.133x    frame=  208 fps=4.6 q=32.0 size=    7359kB time=00:00:06.04 bitrate=9976.0kbits/s speed=0.134x    frame=  210 fps=4.6 q=32.0 size=    7359kB time=00:00:06.12 bitrate=9840.8kbits/s speed=0.134x    frame=  213 fps=4.6 q=32.0 size=    7359kB time=00:00:06.25 bitrate=9644.0kbits/s speed=0.135x    frame=  219 fps=4.7 q=32.0 size=   10886kB time=00:00:06.50 bitrate=13717.6kbits/s speed=0.139x    frame=  221 fps=4.7 q=31.0 size=   10886kB time=00:00:06.58 bitrate=13544.7kbits/s speed=0.139x    frame=  223 fps=4.7 q=31.0 size=   10886kB time=00:00:06.66 bitrate=13374.1kbits/s speed=0.139x    frame=  226 fps=4.6 q=31.0 size=   10886kB time=00:00:06.79 bitrate=13128.0kbits/s speed=0.14x    frame=  229 fps=4.7 q=31.0 size=   10886kB time=00:00:06.91 bitrate=12890.8kbits/s speed=0.141x    frame=  232 fps=4.6 q=31.0 size=   10886kB time=00:00:07.04 bitrate=12662.0kbits/s speed=0.141x    frame=  234 fps=4.6 q=31.0 size=   10886kB time=00:00:07.12 bitrate=12514.5kbits/s speed=0.141x    frame=  237 fps=4.6 q=31.0 size=   10886kB time=00:00:07.25 bitrate=12298.8kbits/s speed=0.142x    frame=  240 fps=4.6 q=31.0 size=   10886kB time=00:00:07.37 bitrate=12090.3kbits/s speed=0.143x    frame=  242 fps=4.6 q=31.0 size=   10886kB time=00:00:07.45 bitrate=11955.8kbits/s speed=0.142x    frame=  250 fps=4.7 q=31.0 size=   12454kB time=00:00:07.79 bitrate=13091.6kbits/s speed=0.145x    frame=  256 fps=4.7 q=31.0 size=   12454kB time=00:00:08.04 bitrate=12684.7kbits/s speed=0.147x    frame=  259 fps=4.7 q=31.0 size=   12454kB time=00:00:08.16 bitrate=12490.6kbits/s speed=0.148x    frame=  262 fps=4.7 q=31.0 size=   12454kB time=00:00:08.29 bitrate=12302.3kbits/s speed=0.148x    frame=  264 fps=4.7 q=31.0 size=   12454kB time=00:00:08.37 bitrate=12180.4kbits/s speed=0.148x    frame=  267 fps=4.7 q=31.0 size=   12454kB time=00:00:08.50 bitrate=12001.3kbits/s speed=0.149x    frame=  269 fps=4.6 q=31.0 size=   12454kB time=00:00:08.58 bitrate=11885.2kbits/s speed=0.148x    frame=  273 fps=4.7 q=31.0 size=   12454kB time=00:00:08.75 bitrate=11658.4kbits/s speed=0.149x    frame=  276 fps=4.7 q=31.0 size=   12454kB time=00:00:08.87 bitrate=11494.2kbits/s speed=0.15x    frame=  279 fps=4.7 q=31.0 size=   12454kB time=00:00:09.00 bitrate=11334.6kbits/s speed=0.151x    frame=  283 fps=4.7 q=31.0 size=   12454kB time=00:00:09.16 bitrate=11128.2kbits/s speed=0.152x    frame=  285 fps=4.7 q=31.0 size=   12454kB time=00:00:09.25 bitrate=11028.3kbits/s speed=0.151x    frame=  289 fps=4.7 q=30.0 size=   12454kB time=00:00:09.41 bitrate=10832.8kbits/s speed=0.153x    frame=  294 fps=4.7 q=30.0 size=   12454kB time=00:00:09.62 bitrate=10598.7kbits/s speed=0.153x    frame=  300 fps=4.7 q=30.0 size=   12454kB time=00:00:09.87 bitrate=10330.4kbits/s speed=0.155x    frame=  302 fps=4.7 q=30.0 size=   12454kB time=00:00:09.95 bitrate=10244.3kbits/s speed=0.155x    frame=  307 fps=4.7 q=30.0 size=   12454kB time=00:00:10.16 bitrate=10033.7kbits/s speed=0.156x    frame=  310 fps=4.7 q=30.0 size=   12454kB time=00:00:10.29 bitrate=9911.9kbits/s speed=0.157x    frame=  313 fps=4.7 q=30.0 size=   12454kB time=00:00:10.41 bitrate=9792.9kbits/s speed=0.157x    frame=  320 fps=4.7 q=30.0 size=   12454kB time=00:00:10.70 bitrate=9526.8kbits/s speed=0.159x    frame=  323 fps=4.7 q=30.0 size=   12454kB time=00:00:10.83 bitrate=9416.9kbits/s speed=0.159x    frame=  327 fps=4.8 q=30.0 size=   17188kB time=00:00:11.00 bitrate=12799.4kbits/s speed=0.16x    frame=  332 fps=4.8 q=29.0 size=   17188kB time=00:00:11.20 bitrate=12561.9kbits/s speed=0.162x    frame=  336 fps=4.8 q=29.0 size=   17188kB time=00:00:11.37 bitrate=12377.5kbits/s speed=0.163x    frame=  340 fps=4.8 q=29.0 size=   17188kB time=00:00:11.54 bitrate=12198.4kbits/s speed=0.164x    frame=  344 fps=4.8 q=29.0 size=   17188kB time=00:00:11.70 bitrate=12025.4kbits/s speed=0.165x    frame=  348 fps=4.8 q=29.0 size=   17188kB time=00:00:11.87 bitrate=11856.3kbits/s speed=0.165x    frame=  352 fps=4.9 q=29.0 size=   17188kB time=00:00:12.04 bitrate=11691.9kbits/s speed=0.167x    frame=  356 fps=4.9 q=29.0 size=   17188kB time=00:00:12.20 bitrate=11533.0kbits/s speed=0.168x    frame=  360 fps=4.9 q=29.0 size=   17188kB time=00:00:12.37 bitrate=11377.3kbits/s speed=0.169x    frame=  365 fps=4.9 q=29.0 size=   17188kB time=00:00:12.58 bitrate=11189.3kbits/s speed=0.17x    frame=  368 fps=4.9 q=29.0 size=   17188kB time=00:00:12.70 bitrate=11079.2kbits/s speed=0.171x    frame=  375 fps=5.0 q=28.0 size=   17188kB time=00:00:13.00 bitrate=10830.4kbits/s speed=0.173x    frame=  376 fps=5.0 q=28.0 size=   17188kB time=00:00:13.04 bitrate=10795.5kbits/s speed=0.173x    frame=  381 fps=5.0 q=28.0 size=   17188kB time=00:00:13.25 bitrate=10626.1kbits/s speed=0.174x    frame=  384 fps=5.0 q=28.0 size=   17188kB time=00:00:13.37 bitrate=10526.8kbits/s speed=0.174x    frame=  391 fps=5.1 q=28.0 size=   17188kB time=00:00:13.66 bitrate=10301.9kbits/s speed=0.177x    frame=  392 fps=5.0 q=28.0 size=   17188kB time=00:00:13.70 bitrate=10271.1kbits/s speed=0.176x    frame=  400 fps=5.1 q=27.0 size=   17188kB time=00:00:14.04 bitrate=10026.8kbits/s speed=0.178x    frame=  408 fps=5.1 q=27.0 size=   17188kB time=00:00:14.37 bitrate=9794.5kbits/s speed=0.18x    frame=  412 fps=5.1 q=27.0 size=   17188kB time=00:00:14.54 bitrate=9682.0kbits/s speed=0.181x    frame=  416 fps=5.1 q=27.0 size=   17188kB time=00:00:14.70 bitrate=9572.8kbits/s speed=0.182x    frame=  421 fps=5.2 q=27.0 size=   17188kB time=00:00:14.91 bitrate=9438.7kbits/s speed=0.183x    frame=  425 fps=5.2 q=26.0 size=   21739kB time=00:00:15.08 bitrate=11806.1kbits/s speed=0.184x    frame=  428 fps=5.2 q=26.0 size=   21739kB time=00:00:15.20 bitrate=11709.1kbits/s speed=0.184x    frame=  432 fps=5.2 q=26.0 size=   21739kB time=00:00:15.37 bitrate=11581.9kbits/s speed=0.185x    frame=  436 fps=5.2 q=26.0 size=   21739kB time=00:00:15.54 bitrate=11457.4kbits/s speed=0.185x    frame=  440 fps=5.2 q=26.0 size=   21739kB time=00:00:15.70 bitrate=11336.4kbits/s speed=0.185x    frame=  445 fps=5.2 q=26.0 size=   21739kB time=00:00:15.91 bitrate=11187.5kbits/s speed=0.186x    frame=  448 fps=5.2 q=26.0 size=   21739kB time=00:00:16.04 bitrate=11100.4kbits/s speed=0.186x    frame=  452 fps=5.2 q=26.0 size=   21739kB time=00:00:16.20 bitrate=10986.7kbits/s speed=0.187x    frame=  455 fps=5.2 q=26.0 size=   21739kB time=00:00:16.33 bitrate=10902.6kbits/s speed=0.186x    frame=  460 fps=5.2 q=26.0 size=   21739kB time=00:00:16.54 bitrate=10764.9kbits/s speed=0.188x    frame=  461 fps=5.2 q=26.0 size=   21739kB time=00:00:16.58 bitrate=10738.2kbits/s speed=0.186x    frame=  467 fps=5.1 q=26.0 size=   21739kB time=00:00:16.83 bitrate=10578.8kbits/s speed=0.186x    frame=  473 fps=5.2 q=26.0 size=   21739kB time=00:00:17.08 bitrate=10424.0kbits/s speed=0.187x    frame=  475 fps=5.2 q=27.0 size=   21739kB time=00:00:17.16 bitrate=10373.0kbits/s speed=0.187x    frame=  481 fps=5.2 q=27.0 size=   25744kB time=00:00:17.41 bitrate=12107.9kbits/s speed=0.188x    frame=  484 fps=5.2 q=26.0 size=   25744kB time=00:00:17.54 bitrate=12021.6kbits/s speed=0.188x    frame=  488 fps=5.2 q=26.0 size=   25744kB time=00:00:17.70 bitrate=11909.0kbits/s speed=0.189x    frame=  492 fps=5.2 q=27.0 size=   25744kB time=00:00:17.87 bitrate=11797.7kbits/s speed=0.189x    frame=  496 fps=5.2 q=27.0 size=   25744kB time=00:00:18.04 bitrate=11688.5kbits/s speed=0.189x    frame=  500 fps=5.2 q=27.0 size=   25744kB time=00:00:18.20 bitrate=11582.0kbits/s speed=0.19x    frame=  500 fps=4.8 q=-1.0 Lsize=   31863kB time=00:00:20.70 bitrate=12604.3kbits/s speed=0.199x    
video:31858kB audio:0kB subtitle:0kB other streams:0kB global headers:0kB muxing overhead: 0.015501%
bench: utime=361.100s
bench: maxrss=1831804kB
[libx264 @ 0x28d81c0] frame I:8     Avg QP:21.34  size:227514
[libx264 @ 0x28d81c0] frame P:269   Avg QP:26.52  size: 79114
[libx264 @ 0x28d81c0] frame B:223   Avg QP:24.88  size: 42692
[libx264 @ 0x28d81c0] consecutive B-frames: 37.0%  8.4%  6.6% 48.0%
[libx264 @ 0x28d81c0] mb I  I16..4: 23.0% 71.8%  5.2%
[libx264 @ 0x28d81c0] mb P  I16..4: 20.9% 18.4%  0.5%  P16..4: 32.4%  4.9%  2.0%  0.0%  0.0%    skip:21.0%
[libx264 @ 0x28d81c0] mb B  I16..4:  1.3%  2.6%  0.2%  B16..8: 35.1%  3.8%  0.6%  direct: 2.2%  skip:54.1%  L0:43.0% L1:52.0% BI: 5.0%
[libx264 @ 0x28d81c0] final ratefactor: 23.52
[libx264 @ 0x28d81c0] 8x8 transform intra:49.2% inter:86.9%
[libx264 @ 0x28d81c0] direct mvs  spatial:98.7% temporal:1.3%
[libx264 @ 0x28d81c0] coded y,uvDC,uvAC intra: 20.9% 32.0% 4.1% inter: 9.5% 11.8% 0.2%
[libx264 @ 0x28d81c0] i16 v,h,dc,p: 23% 26%  9% 41%
[libx264 @ 0x28d81c0] i8 v,h,dc,ddl,ddr,vr,hd,vl,hu: 14% 12% 20%  7% 10%  9% 11%  8% 10%
[libx264 @ 0x28d81c0] i4 v,h,dc,ddl,ddr,vr,hd,vl,hu: 14% 14%  8%  7% 15% 11% 15%  6%  9%
[libx264 @ 0x28d81c0] i8c dc,h,v,p: 60% 22% 12%  5%
[libx264 @ 0x28d81c0] Weighted P-Frames: Y:1.1% UV:0.7%
[libx264 @ 0x28d81c0] ref P L0: 66.5% 18.4%  8.8%  3.3%  2.3%  0.6%
[libx264 @ 0x28d81c0] ref B L0: 89.8%  7.3%  2.3%  0.6%
[libx264 @ 0x28d81c0] ref B L1: 97.5%  2.5%
[libx264 @ 0x28d81c0] kb/s:12526.92
